# AST/ASF file generated using VICON BodyLanguage
# -----------------------------------------------
:version 1.10
:name VICON
:units
  mass 1.0
  length 0.45
  angle deg
:documentation
   .ast/.asf automatically generated from VICON data using
   VICON BodyBuilder and BodyLanguage model FoxedUp or BRILLIANT.MOD
:root
   order TX TY TZ RX RY RZ
   axis XYZ
   position 0 0 0  
   orientation 0 0 0 
:bonedata
  begin
     id 1 
     name lhipjoint
     direction 0.541323 -0.757556 0.364798 
     length 2.47576 
     axis 0 0 0  XYZ
  end
  begin
     id 2 
     name lfemur
     direction 0.34202 -0.939693 0  
     length 7.46493  
     axis 0 0 20  XYZ
    dof rx ry rz
    limits (-160.0 20.0)
           (-70.0 70.0)
           (-60.0 70.0)
  end
  begin
     id 3 
     name ltibia
     direction 0.34202 -0.939693 0   
     length 7.73805   
     axis 0 0 20   XYZ
    dof rx
    limits (-10.0 170.0)
  end
  begin
     id 4 
     name lfoot
     direction 0.107174 -0.294458 0.949636   
     length 2.25864   
     axis -90 7.62852e-016 20   XYZ
    dof rx rz
    limits (-45.0 90.0)
           (-70.0 20.0)
  end
  begin
     id 5 
     name ltoes
     direction 1.53606e-011 -4.21934e-011 1   
     length 1.12451   
     axis -90 7.62852e-016 20   XYZ
    dof rx
    limits (-90.0 20.0)
  end
  begin
     id 6 
     name rhipjoint
     direction -0.524745 -0.766967 0.36933   
     length 2.44538  
     axis 0 0 0  XYZ 
  end
  begin
     id 7 
     name rfemur
     direction -0.34202 -0.939693 0   
     length 7.61604   
     axis 0 0 -20   XYZ
    dof rx ry rz
    limits (-160.0 20.0)
           (-70.0 70.0)
           (-70.0 60.0)
  end
  begin
     id 8 
     name rtibia
     direction -0.34202 -0.939693 0   
     length 7.61056   
     axis 0 0 -20   XYZ
    dof rx
    limits (-10.0 170.0)
 end
 begin
     id 9 
     name rfoot
     direction -0.12616 -0.346623 0.929482   
     length 2.46372  
     axis -90 -7.62852e-016 -20   XYZ
    dof rx rz
    limits (-45.0 90.0)
           (-20.0 70.0)
  end
  begin
     id 10 
     name rtoes
     direction -1.53531e-011 -4.22004e-011 1   
     length 1.21611   
     axis -90 -7.62852e-016 -20   XYZ
    dof rx
    limits (-90.0 20.0)
  end
  begin
     id 11 
     name lowerback
     direction -0.000778023 0.997293 -0.0735223   
     length 2.06139   
     axis 0 0 0   XYZ
    dof rx ry rz
    limits (-20.0 45.0)
           (-30.0 30.0)
           (-30.0 30.0)
  end
  begin
     id 12 
     name upperback
     direction 0.0222598 0.999722 -0.0078355   
     length 2.06383   
     axis 0 0 0   XYZ
    dof rx ry rz
    limits (-20.0 45.0)
           (-30.0 30.0)
           (-30.0 30.0)
  end
  begin
     id 13 
     name thorax
     direction 0.0219654 0.999405 0.0265994   
     length 2.07163   
     axis 0 0 0   XYZ
    dof rx ry rz
    limits (-20.0 45.0)
           (-30.0 30.0)
           (-30.0 30.0)
  end
  begin
     id 14 
     name lowerneck
     direction 0.0213282 0.988147 0.15202   
     length 1.75969   
     axis 0 0 0   XYZ
    dof rx ry rz
    limits (-20.0 45.0)
           (-30.0 30.0)
           (-30.0 30.0)
  end
  begin
     id 15 
     name upperneck
     direction -0.0546456 0.982624 -0.177379   
     length 1.79244   
     axis 0 0 0   XYZ
    dof rx ry rz
    limits (-20.0 45.0)
           (-30.0 30.0)
           (-30.0 30.0)
  end
  begin
     id 16
     name head
     direction -0.0199987 0.996855 -0.076686  
     length 1.80555  
     axis 0 0 0   XYZ
    dof rx ry rz
    limits (-20.0 45.0)
           (-30.0 30.0)
           (-30.0 30.0)
  end
  begin
     id 17 
     name lclavicle
     direction 0.929565 0.363219 -0.063096  
     length 3.55722  
     axis 0 0 0   XYZ
    dof ry rz
    limits (-20.0 10.0)
           (0.0 20.0)
  end
  begin
     id 18 
     name lhumerus
     direction 1 -4.48993e-011 -2.36203e-027   
     length 4.92785   
     axis 180 -30 -90   XYZ
    dof rx ry rz
    limits (-60.0 90.0)
           (-90.0 90.0)
           (-90.0 90.0)
  end
  begin
     id 19
     name lradius
     direction 1 -4.48947e-011 2.02997e-027   
     length 3.44052   
     axis 180 -30 -90   XYZ
    dof rx
    limits (-10.0 170.0)
  end
  begin
     id 20
     name lwrist
     direction 1 -4.48962e-011 1.45991e-027   
     length 1.72026   
     axis 1.49639e-024 90 90   XYZ
    dof ry
    limits (-180.0 0.0)
 end
  begin
     id 21 
     name lhand
     direction 1 -4.48984e-011 2.91906e-027   
     length 0.654326   
     axis -1.863e-015 90 90   XYZ
    dof rx rz
    limits (-90.0 90.0)
           (-45.0 45.0)
  end
  begin
     id 22 
     name lfingers
     direction 1 -4.48961e-011 5.83968e-027   
     length 0.527534   
     axis -3.72598e-015 90 90   XYZ
    dof rx
    limits (0.0 90.0)
  end
  begin
     id 23
     name lthumb
     direction 0.707107 -6.34963e-011 0.707107   
     length 0.757437   
     axis -90 45 -6.68868e-015   XYZ
    dof rx rz
    limits (-45.0 45.0)
           (-45.0 45.0)
  end
  begin
     id 24 
     name rclavicle
     direction -0.902944 0.422599 -0.0781198   
     length 3.54432  
     axis 0 0 0   XYZ 
    dof ry rz
    limits (-10.0 20.0)
           (-20.0 0.0)
  end
  begin
     id 25 
     name rhumerus
     direction -1 -4.48953e-011 -4.75835e-028  
     length 5.09181   
     axis 180 30 90   XYZ
    dof rx ry rz
    limits (-90.0 60.0)
           (-90.0 90.0)
           (-90.0 90.0)
  end
  begin
     id 26 
     name rradius
     direction -1 -4.48986e-011 -3.25889e-027   
     length 3.49865   
     axis 180 30 90   XYZ
    dof rx
    limits (-10.0 170.0)
  end
  begin
     id 27 
     name rwrist
     direction -1 -4.48963e-011 1.45989e-027   
     length 1.74933   
     axis 1.49639e-024 -90 -90   XYZ
    dof ry
    limits (-180.0 0.0)
  end
  begin
     id 28
     name rhand
     direction -1 -4.49003e-011 2.91844e-027   
     length 0.66641   
     axis -1.863e-015 -90 -90   XYZ
    dof rx rz
    limits (-90.0 90.0)
           (-45.0 45.0)
  end
  begin
     id 29
     name rfingers
     direction -1 -4.48973e-011 5.83886e-027   
     length 0.537277   
     axis -3.72598e-015 -90 -90   XYZ
    dof rx
    limits (0.0 90.0)
  end
  begin
     id 30
     name rthumb
     direction -0.707107 -6.34976e-011 0.707107   
     length 0.771425   
     axis -90 -45 6.68868e-015   XYZ
    dof rx rz
    limits (-45.0 45.0)
           (-45.0 45.0)
  end
:hierarchy
  begin
    root lhipjoint rhipjoint lowerback
    lhipjoint lfemur
    lfemur ltibia
    ltibia lfoot
    lfoot ltoes
    rhipjoint rfemur
    rfemur rtibia
    rtibia rfoot
    rfoot rtoes
    lowerback upperback
    upperback thorax
    thorax lowerneck lclavicle rclavicle
    lowerneck upperneck
    upperneck head
    lclavicle lhumerus
    lhumerus lradius
    lradius lwrist
    lwrist lhand lthumb
    lhand lfingers
    rclavicle rhumerus
    rhumerus rradius
    rradius rwrist
    rwrist rhand rthumb
    rhand rfingers
  end

#!OML:ASF H:\LiuWeirdWalks\Patient Classification 1\Patient 1\Session 1\male.ASF
:FULLY-SPECIFIED
:DEGREES
137
root 1.07461 17.742 -29.2831 3.98104 4.46412 0.0315872
lowerback 9.8298 0.0215657 -5.4046
upperback -1.1421 -0.438751 2.82727
thorax -6.68305 0.0451318 6.13124
lowerneck -20.2048 1.76245 6.42682
upperneck 25.0672 1.38782 -3.60257
head 11.6159 0.779679 -2.19932
rclavicle 1.66979e-014 -2.26615e-014
rhumerus -40.3763 -8.49347 -70.7681
rradius 33.8869
rwrist -9.2378
rhand -17.5718 1.68344
rfingers 7.12502
rthumb 8.68356 -28.118
lclavicle 1.66979e-014 -2.26615e-014
lhumerus -36.6162 1.214 84.3114
lradius 31.0113
lwrist 4.68614
lhand -12.3442 -2.02813
lfingers 7.12502
lthumb 13.7253 27.4992
rfemur -21.6501 -8.68657 12.7427
rtibia 77.6538
rfoot 10.9013 -6.77738
rtoes -5.17759
lfemur -9.20442 -2.30942 -27.7206
ltibia 26.608
lfoot -16.113 19.8427
ltoes -2.74436
138
root 1.07935 17.7407 -29.2719 4.11609 4.37518 -0.00813415
lowerback 9.89153 0.0562151 -5.32648
upperback -1.12527 -0.384386 2.84577
thorax -6.70828 0.0698128 6.09901
lowerneck -20.202 1.75961 6.41085
upperneck 25.0189 1.39309 -3.6181
head 11.597 0.777837 -2.20082
rclavicle 2.54941e-014 -4.01545e-014
rhumerus -40.313 -8.44701 -70.7736
rradius 33.8907
rwrist -9.2203
rhand -17.592 1.72485
rfingers 7.12502
rthumb 8.66409 -28.0774
lclavicle 2.54941e-014 -4.01545e-014
lhumerus -36.6315 1.22442 84.3516
lradius 31.0457
lwrist 4.7389
lhand -12.3698 -1.99706
lfingers 7.12502
lthumb 13.7006 27.532
rfemur -21.8105 -8.6777 12.7801
rtibia 77.7405
rfoot 10.921 -6.71985
rtoes -5.10011
lfemur -9.34452 -2.36927 -27.6996
ltibia 26.6731
lfoot -16.1941 20.0203
ltoes -2.89165
139
root 1.08435 17.7397 -29.2598 4.2593 4.29512 -0.0343306
lowerback 9.95895 -0.0927485 -5.35626
upperback -1.11506 -0.577875 3.02944
thorax -6.70628 -0.0205839 6.34559
lowerneck -20.4274 1.80224 6.35492
upperneck 25.4037 1.62081 -4.15694
head 11.8052 0.806284 -2.36452
rclavicle -1.2921e-015 2.74323e-014
rhumerus -40.0007 -7.70846 -70.8462
rradius 33.8491
rwrist -9.26326
rhand -17.6072 1.75714
rfingers 7.12502
rthumb 8.6494 -28.0457
lclavicle -1.2921e-015 2.74323e-014
lhumerus -36.7926 1.96713 84.3525
lradius 31.1091
lwrist 4.70768
lhand -12.3979 -2.02852
lfingers 7.12502
lthumb 13.6735 27.5023
rfemur -21.9748 -8.68688 12.8005
rtibia 77.8198
rfoot 10.9527 -6.67248
rtoes -4.97155
lfemur -9.48409 -2.41546 -27.6899
ltibia 26.7217
lfoot -16.2406 20.1691
ltoes -3.05359
140
root 1.08993 17.7389 -29.2471 4.41216 4.22535 -0.0468437
lowerback 10.0312 -0.495692 -5.5189
upperback -1.09149 -1.11261 3.44032
thorax -6.63298 -0.272518 6.9675
lowerneck -20.7699 1.76727 5.81352
upperneck 26.1083 2.01874 -5.04568
head 12.1741 0.813401 -2.56071
rclavicle 1.27222e-014 -3.02153e-014
rhumerus -39.2912 -6.03492 -70.9976
rradius 33.7297
rwrist -9.39183
rhand -17.609 1.76523
rfingers 7.12502
rthumb 8.64769 -28.0377
lclavicle 1.27222e-014 -3.02153e-014
lhumerus -37.1118 3.73211 84.2959
lradius 31.2227
lwrist 4.57174
lhand -12.4222 -2.09854
lfingers 7.12502
lthumb 13.6501 27.4339
rfemur -22.1457 -8.71903 12.8008
rtibia 77.8931
rfoot 10.9845 -6.62315
rtoes -4.85406
lfemur -9.62356 -2.44287 -27.6932
ltibia 26.7522
lfoot -16.2605 20.2788
ltoes -3.19175
141
root 1.09593 17.7382 -29.2336 4.57378 4.18213 -0.0341622
lowerback 10.1096 -0.821381 -5.61879
upperback -1.07761 -1.54433 3.74224
thorax -6.58372 -0.477836 7.42097
lowerneck -21.0995 1.65345 5.41395
upperneck 26.7311 2.25015 -5.86318
head 12.5077 0.762616 -2.78515
rclavicle 2.68359e-014 -3.73715e-014
rhumerus -38.7276 -4.718 -71.1217
rradius 33.6325
rwrist -9.49054
rhand -17.6022 1.7706
rfingers 7.12502
rthumb 8.65422 -28.032
lclavicle 2.68359e-014 -3.73715e-014
lhumerus -37.3896 5.10884 84.2369
lradius 31.3063
lwrist 4.41661
lhand -12.4758 -2.26051
lfingers 7.12502
lthumb 13.5984 27.2754
rfemur -22.3174 -8.79069 12.7687
rtibia 77.9611
rfoot 11.0126 -6.55876
rtoes -4.76623
lfemur -9.75867 -2.46386 -27.7213
ltibia 26.7627
lfoot -16.2588 20.3499
ltoes -3.30629
142
root 1.10257 17.7373 -29.219 4.73368 4.14455 -0.00727693
lowerback 10.1842 -1.05448 -5.67448
upperback -1.0591 -1.85281 3.9512
thorax -6.54646 -0.625947 7.72957
lowerneck -21.307 1.5128 5.05673
upperneck 27.1215 2.35972 -6.43256
head 12.7184 0.692772 -2.9391
rclavicle -3.27995e-014 2.14687e-014
rhumerus -38.2971 -3.76785 -71.2107
rradius 33.5657
rwrist -9.56267
rhand -17.5913 1.77442
rfingers 7.12502
rthumb 8.66471 -28.0278
lclavicle -3.27995e-014 2.14687e-014
lhumerus -37.5999 6.09455 84.2039
lradius 31.382
lwrist 4.33144
lhand -12.4959 -2.31791
lfingers 7.12502
lthumb 13.579 27.2193
rfemur -22.483 -8.87807 12.7148
rtibia 78.0221
rfoot 11.034 -6.4834
rtoes -4.74697
lfemur -9.87896 -2.4722 -27.7668
ltibia 26.7584
lfoot -16.2539 20.4039
ltoes -3.41024
143
root 1.11008 17.7362 -29.2022 4.89078 4.10112 0.0269953
lowerback 10.2348 -1.06945 -5.6518
upperback -1.03526 -1.87053 3.97468
thorax -6.54652 -0.63572 7.74622
lowerneck -21.2939 1.39966 4.86961
upperneck 27.1245 2.27402 -6.46274
head 12.7088 0.630944 -2.93329
rclavicle -2.03754e-014 2.78299e-014
rhumerus -38.1803 -3.60707 -71.2351
rradius 33.5805
rwrist -9.59414
rhand -17.5803 1.77394
rfingers 7.12502
rthumb 8.67541 -28.0278
lclavicle -2.03754e-014 2.78299e-014
lhumerus -37.6573 6.21565 84.2472
lradius 31.4154
lwrist 4.34834
lhand -12.4828 -2.26113
lfingers 7.12502
lthumb 13.5917 27.2752
rfemur -22.6387 -8.96741 12.646
rtibia 78.0751
rfoot 11.0402 -6.39682
rtoes -4.81202
lfemur -9.9782 -2.49214 -27.826
ltibia 26.7395
lfoot -16.2559 20.4753
ltoes -3.51097
